<svg width="182" height="47" viewBox="0 0 182 47" fill="none" xmlns="http://www.w3.org/2000/svg">
<path d="M0 46.1883V0H7.47629V25.8502L33.8334 0H43.5906L23.1892 19.6411L44.4776 46.1883H34.9105L17.7404 24.7731L7.47629 34.7204V46.1883H0Z M64.3885 46.8219C60.4603 46.8219 57.0389 46.1249 54.1244 44.731C51.2099 43.3372 48.929 41.3519 47.2817 38.7753C45.6766 36.1565 44.8741 33.0731 44.8741 29.525C44.8741 25.9347 45.6766 22.8513 47.2817 20.2747C48.929 17.6559 51.2099 15.6495 54.1244 14.2556C57.0389 12.8618 60.4603 12.1648 64.3885 12.1648C68.2745 12.1648 71.6747 12.8618 74.5892 14.2556C77.5459 15.6495 79.8268 17.6559 81.4319 20.2747C83.0792 22.8513 83.9029 25.9347 83.9029 29.525C83.9029 33.0309 83.0792 36.0932 81.4319 38.712C79.8268 41.2886 77.567 43.2949 74.6525 44.731C71.7381 46.1249 68.3167 46.8219 64.3885 46.8219ZM64.3885 40.9929C68.1477 40.9929 71.1045 39.958 73.2587 37.8883C75.4551 35.8186 76.5533 33.0309 76.5533 29.525C76.5533 25.9769 75.4551 23.1681 73.2587 21.0984C71.1045 18.9864 68.1477 17.9304 64.3885 17.9304C60.6715 17.9304 57.7147 18.9864 55.5183 21.0984C53.3219 23.1681 52.2237 25.9769 52.2237 29.525C52.2237 32.9886 53.3008 35.7764 55.4549 37.8883C57.6514 39.958 60.6292 40.9929 64.3885 40.9929Z M104.663 46.7585C101.326 46.7585 98.4118 46.0616 95.9197 44.6677C93.4276 43.2316 91.4846 41.2252 90.0907 38.6486C88.6968 36.0298 87.9999 32.9675 87.9999 29.4617C87.9999 25.8714 88.6968 22.7879 90.0907 20.2113C91.4846 17.6348 93.4276 15.6495 95.9197 14.2556C98.454 12.8618 101.369 12.1648 104.663 12.1648C108.084 12.1648 110.957 12.7984 113.28 14.0656C115.603 15.2905 117.271 16.9167 118.285 18.9442H118.602L118.855 12.6717H125.825V46.1883H118.475V39.599H118.158C117.103 41.7954 115.35 43.5483 112.9 44.8578C110.492 46.1249 107.747 46.7585 104.663 46.7585ZM106.691 41.0562C109.183 41.0562 111.295 40.5705 113.026 39.599C114.8 38.6275 116.152 37.3392 117.081 35.7341C118.011 34.1291 118.475 32.3973 118.475 30.5388V28.0044C118.475 26.1881 118.011 24.5197 117.081 22.9991C116.152 21.4363 114.8 20.1902 113.026 19.261C111.295 18.3317 109.183 17.8671 106.691 17.8671C103.354 17.8671 100.629 18.8808 98.5174 20.9083C96.4477 22.8935 95.4128 25.7446 95.4128 29.4617C95.4128 33.052 96.4477 35.882 98.5174 37.9517C100.587 40.0214 103.312 41.0562 106.691 41.0562Z" fill="#253746"/>
<path d="M132.892 46.1883V0H140.242V46.1883H132.892Z" fill="#253746"/>
<path d="M147.309 7.60301V0H154.658V7.60301H147.309ZM147.309 46.1883V12.6717H154.658V46.1883H147.309Z" fill="#253746"/>
<path d="M174.144 46.1883C171.609 46.1883 169.603 45.5969 168.125 44.4142C166.688 43.1893 165.97 41.3519 165.97 38.9021V18.3106H159.191V12.6717H165.97V3.35799L173.193 1.90075V12.6717H182V18.3106H173.193V36.6845C173.193 37.9094 173.51 38.7542 174.144 39.2189C174.777 39.6412 175.706 39.8524 176.931 39.8524H182V46.1883H174.144Z" fill="#253746"/>
<circle cx="71.7732" cy="29.2043" r="2.47494" fill="#253746"/>
<circle cx="55.9336" cy="29.2043" r="2.47494" fill="#253746"/>
<path d="M61.3785 29.2043C61.3785 27.8374 62.4865 26.7293 63.8534 26.7293V26.7293C65.2203 26.7293 66.3284 27.8374 66.3284 29.2043V32.1742C66.3284 33.5411 65.2203 34.6491 63.8534 34.6491V34.6491C62.4865 34.6491 61.3785 33.5411 61.3785 32.1742V29.2043Z" fill="#253544"/>
</svg>
